<?xml version="1.0" encoding="UTF-8"?>
<!DOCTYPE svg PUBLIC "-//W3C//DTD SVG 1.1//EN" "http://www.w3.org/Graphics/SVG/1.1/DTD/svg11.dtd">
<svg xmlns="http://www.w3.org/2000/svg" version="1.1" width="437px" height="317px" style="shape-rendering:geometricPrecision; text-rendering:geometricPrecision; image-rendering:optimizeQuality; fill-rule:evenodd; clip-rule:evenodd" xmlns:xlink="http://www.w3.org/1999/xlink">
<g><path style="opacity:0.997" fill="#23b023" d="M 436.5,7.5 C 436.5,9.16667 436.5,10.8333 436.5,12.5C 429.271,37.7027 422.104,63.036 415,88.5C 410.667,84.1667 406.333,79.8333 402,75.5C 371.965,105.702 341.799,135.702 311.5,165.5C 307.135,148.736 302.135,132.069 296.5,115.5C 296.863,114.817 297.196,114.15 297.5,113.5C 321.299,90.2016 344.965,66.7016 368.5,43C 365.17,38.8371 361.504,35.0038 357.5,31.5C 356.614,30.675 356.281,29.675 356.5,28.5C 383.166,21.5002 409.833,14.5002 436.5,7.5 Z"/></g>
<g><path style="opacity:0.961" fill="#000000" d="M 297.5,113.5 C 297.196,114.15 296.863,114.817 296.5,115.5C 302.135,132.069 307.135,148.736 311.5,165.5C 314.708,178.327 318.542,190.994 323,203.5C 332.16,221.156 341.826,238.489 352,255.5C 355.257,261.436 357.423,267.769 358.5,274.5C 349.833,274.5 341.167,274.5 332.5,274.5C 331.966,260.396 328.466,247.063 322,234.5C 316.233,226.747 308.733,221.247 299.5,218C 296.567,215.736 294.4,212.902 293,209.5C 285.28,216.686 276.113,220.019 265.5,219.5C 268.632,232.293 270.466,245.293 271,258.5C 272.598,268.028 276.598,276.362 283,283.5C 284.063,285.916 284.896,288.416 285.5,291C 284.623,292.867 283.123,294.034 281,294.5C 274.651,294.384 268.151,294.384 261.5,294.5C 261.804,288.423 261.304,282.423 260,276.5C 254.55,262.029 249.716,247.363 245.5,232.5C 242.969,223.424 237.969,216.091 230.5,210.5C 230.167,210.667 229.833,210.833 229.5,211C 232.121,216.36 234.455,221.86 236.5,227.5C 229.167,232.417 221.333,236.417 213,239.5C 211.97,239.836 211.47,240.503 211.5,241.5C 207.118,242.477 202.784,243.643 198.5,245C 196.227,250.94 192.227,255.273 186.5,258C 182.227,259.535 177.894,260.869 173.5,262C 171.203,263.263 170.37,265.097 171,267.5C 179.567,272.233 185.4,279.233 188.5,288.5C 188.291,289.086 187.957,289.586 187.5,290C 181.472,290.83 175.472,290.664 169.5,289.5C 164.953,281.783 159.453,274.783 153,268.5C 151.813,266.956 151.48,265.289 152,263.5C 157.976,260.024 162.81,255.357 166.5,249.5C 169.833,248.333 173.167,247.167 176.5,246C 167.976,246.044 159.642,244.878 151.5,242.5C 152.954,240.333 152.788,238.333 151,236.5C 146.996,252.346 137.829,264.18 123.5,272C 118.415,274.148 113.415,273.982 108.5,271.5C 101.47,279.115 99.8037,287.781 103.5,297.5C 96.6662,298.499 89.6662,298.499 82.5,297.5C 82.2804,291.03 83.1137,284.697 85,278.5C 89.1777,270.145 93.3443,261.811 97.5,253.5C 98.1667,253.5 98.5,253.167 98.5,252.5C 98.8333,251.5 99.5,250.833 100.5,250.5C 104.146,251.283 107.812,251.45 111.5,251C 114.919,245.243 117.252,239.076 118.5,232.5C 118.783,231.711 119.283,231.044 120,230.5C 121.158,216.201 124.658,202.534 130.5,189.5C 122.652,184.878 114.318,181.211 105.5,178.5C 91.6563,172.025 88.823,162.359 97,149.5C 114.942,134.012 135.776,125.012 159.5,122.5C 159.798,119.735 160.798,117.235 162.5,115C 170.278,112.861 177.111,109.027 183,103.5C 184.124,112.795 181.624,120.961 175.5,128C 172.607,129.149 169.607,129.649 166.5,129.5C 162.568,126.911 158.568,126.911 154.5,129.5C 140.18,131.494 127.846,137.494 117.5,147.5C 109.999,155.144 111.332,160.478 121.5,163.5C 121.611,164.117 121.944,164.617 122.5,165C 132.603,168.234 142.936,169.234 153.5,168C 167.154,167.128 180.487,164.628 193.5,160.5C 194.713,160.253 195.38,159.586 195.5,158.5C 215.283,152.554 229.283,140.054 237.5,121C 237.167,120.5 236.833,120 236.5,119.5C 229.115,122.861 221.782,126.195 214.5,129.5C 212.701,129.423 211.034,128.923 209.5,128C 205.588,123.417 201.088,119.583 196,116.5C 195.365,114.365 195.699,112.365 197,110.5C 200.76,105.317 204.76,100.317 209,95.5C 210.009,93.9751 210.509,92.3084 210.5,90.5C 203.213,93.4958 196.213,92.9958 189.5,89C 188.299,88.0975 187.465,86.9308 187,85.5C 185.921,75.4285 182.754,66.0952 177.5,57.5C 179.523,56.959 181.523,57.459 183.5,59C 188.604,67.4377 195.604,73.7711 204.5,78C 206.833,78.6667 209.167,78.6667 211.5,78C 215.802,73.766 220.969,71.266 227,70.5C 229.151,70.7725 231.151,71.4392 233,72.5C 238.59,65.7777 245.423,60.611 253.5,57C 263.444,47.2885 262.778,38.4552 251.5,30.5C 246.3,25.0645 244.966,19.0645 247.5,12.5C 250.482,15.7827 252.982,19.4493 255,23.5C 263.634,28.8034 270.967,35.4701 277,43.5C 277.465,51.5804 275.299,58.9137 270.5,65.5C 277.369,66.4641 283.703,68.7974 289.5,72.5C 284.683,74.7413 280.017,77.2413 275.5,80C 285.492,89.5024 292.826,100.669 297.5,113.5 Z M 154.5,129.5 C 143.5,140.833 132.5,152.167 121.5,163.5C 111.332,160.478 109.999,155.144 117.5,147.5C 127.846,137.494 140.18,131.494 154.5,129.5 Z"/></g>
<g><path style="opacity:0.997" fill="#23af23" d="M 166.5,129.5 C 175.833,139.5 185.5,149.167 195.5,158.5C 195.38,159.586 194.713,160.253 193.5,160.5C 180.487,164.628 167.154,167.128 153.5,168C 142.936,169.234 132.603,168.234 122.5,165C 121.944,164.617 121.611,164.117 121.5,163.5C 132.5,152.167 143.5,140.833 154.5,129.5C 158.568,126.911 162.568,126.911 166.5,129.5 Z"/></g>
<g><path style="opacity:0.997" fill="#23b123" d="M 105.5,178.5 C 114.318,181.211 122.652,184.878 130.5,189.5C 124.658,202.534 121.158,216.201 120,230.5C 119.283,231.044 118.783,231.711 118.5,232.5C 112.167,238.167 106.167,244.167 100.5,250.5C 99.5,250.833 98.8333,251.5 98.5,252.5C 97.8333,252.5 97.5,252.833 97.5,253.5C 77.1875,273.479 56.8542,293.479 36.5,313.5C 25.3054,303.139 14.6387,292.306 4.5,281C 37.9945,246.672 71.6612,212.505 105.5,178.5 Z"/></g>
<g><path style="opacity:0.991" fill="#23ab23" d="M 245.5,232.5 C 238.202,239.297 231.035,246.297 224,253.5C 219.964,249.296 215.798,245.296 211.5,241.5C 211.47,240.503 211.97,239.836 213,239.5C 221.333,236.417 229.167,232.417 236.5,227.5C 234.455,221.86 232.121,216.36 229.5,211C 229.833,210.833 230.167,210.667 230.5,210.5C 237.969,216.091 242.969,223.424 245.5,232.5 Z"/></g>
</svg>
