<?xml version="1.0" encoding="UTF-8"?>
<!DOCTYPE svg PUBLIC "-//W3C//DTD SVG 1.1//EN" "http://www.w3.org/Graphics/SVG/1.1/DTD/svg11.dtd">
<svg xmlns="http://www.w3.org/2000/svg" version="1.1" width="390px" height="390px" style="shape-rendering:geometricPrecision; text-rendering:geometricPrecision; image-rendering:optimizeQuality; fill-rule:evenodd; clip-rule:evenodd" xmlns:xlink="http://www.w3.org/1999/xlink">
<g><path style="opacity:0.974" fill="#006532" d="M 195.5,123.5 C 235.335,124.831 275.335,124.831 315.5,123.5C 333.358,93.7661 351.691,64.4328 370.5,35.5C 360.239,73.7875 350.072,112.121 340,150.5C 323.911,151.491 307.744,151.825 291.5,151.5C 274.868,150.543 258.201,150.21 241.5,150.5C 225.991,150.17 210.658,150.504 195.5,151.5C 146.495,151.833 97.4955,151.5 48.5,150.5C 37.5333,111.63 27.3666,72.63 18,33.5C 36.6253,63.2495 55.1253,93.0828 73.5,123C 114.165,123.5 154.832,123.667 195.5,123.5 Z"/></g>
<g><path style="opacity:0.979" fill="#259326" d="M 370.5,35.5 C 351.691,64.4328 333.358,93.7661 315.5,123.5C 275.335,124.831 235.335,124.831 195.5,123.5C 195.5,119.5 195.5,115.5 195.5,111.5C 228.803,110.084 262.136,108.918 295.5,108C 321,83.8333 345.833,59 370,33.5C 370.464,34.0944 370.631,34.7611 370.5,35.5 Z"/></g>
<g><path style="opacity:0.957" fill="#2eb62f" d="M 241.5,150.5 C 241.5,150.833 241.5,151.167 241.5,151.5C 226.5,151.5 211.5,151.5 196.5,151.5C 196.5,214.5 196.5,277.5 196.5,340.5C 200.167,340.5 203.833,340.5 207.5,340.5C 207.5,340.833 207.5,341.167 207.5,341.5C 203.298,341.817 199.298,341.483 195.5,340.5C 195.5,277.5 195.5,214.5 195.5,151.5C 210.658,150.504 225.991,150.17 241.5,150.5 Z"/></g>
<g><path style="opacity:1" fill="#32c032" d="M 241.5,151.5 C 228.575,167.199 224.075,185.199 228,205.5C 229.346,213.213 230.846,220.88 232.5,228.5C 228.574,231.807 224.24,234.64 219.5,237C 223.821,237.499 228.154,237.666 232.5,237.5C 224.61,272.056 216.277,306.389 207.5,340.5C 203.833,340.5 200.167,340.5 196.5,340.5C 196.5,277.5 196.5,214.5 196.5,151.5C 211.5,151.5 226.5,151.5 241.5,151.5 Z"/></g>
<g><path style="opacity:0.989" fill="#259326" d="M 241.5,150.5 C 258.201,150.21 274.868,150.543 291.5,151.5C 321.006,168.087 350.673,184.421 380.5,200.5C 346.011,191.449 311.678,181.782 277.5,171.5C 276.914,171.709 276.414,172.043 276,172.5C 271.962,185.454 267.462,198.121 262.5,210.5C 261.833,210.5 261.5,210.833 261.5,211.5C 251.97,217.43 242.303,223.097 232.5,228.5C 230.846,220.88 229.346,213.213 228,205.5C 224.075,185.199 228.575,167.199 241.5,151.5C 241.5,151.167 241.5,150.833 241.5,150.5 Z"/></g>
<g><path style="opacity:0.978" fill="#006532" d="M 195.5,340.5 C 199.298,341.483 203.298,341.817 207.5,341.5C 211.767,341.797 215.934,341.464 220,340.5C 233.808,299.575 247.308,258.575 260.5,217.5C 260.833,215.5 261.167,213.5 261.5,211.5C 262.167,211.5 262.5,211.167 262.5,210.5C 267.462,198.121 271.962,185.454 276,172.5C 276.414,172.043 276.914,171.709 277.5,171.5C 311.678,181.782 346.011,191.449 380.5,200.5C 381.239,200.369 381.906,200.536 382.5,201C 358.975,222.506 331.975,228.173 301.5,218C 297.637,216.819 294.137,214.986 291,212.5C 287.873,225.132 284.873,237.799 282,250.5C 255.776,275.352 247.276,305.352 256.5,340.5C 251.226,350.21 245.56,359.71 239.5,369C 209.161,369.833 178.828,369.667 148.5,368.5C 142.316,359.462 136.649,350.128 131.5,340.5C 139.004,315.88 136.171,292.547 123,270.5C 118.053,262.951 112.386,255.951 106,249.5C 103.288,237.601 100.455,225.768 97.5,214C 89.2022,217.43 80.5356,220.096 71.5,222C 46.3311,225.663 24.6644,218.83 6.5,201.5C 41.4205,190.972 76.4205,180.638 111.5,170.5C 131.291,226.873 150.291,283.54 168.5,340.5C 177.5,340.5 186.5,340.5 195.5,340.5 Z M 261.5,211.5 C 261.167,213.5 260.833,215.5 260.5,217.5C 254.039,228.074 244.706,234.741 232.5,237.5C 228.154,237.666 223.821,237.499 219.5,237C 224.24,234.64 228.574,231.807 232.5,228.5C 242.303,223.097 251.97,217.43 261.5,211.5 Z"/></g>
<g><path style="opacity:0.994" fill="#259426" d="M 260.5,217.5 C 247.308,258.575 233.808,299.575 220,340.5C 215.934,341.464 211.767,341.797 207.5,341.5C 207.5,341.167 207.5,340.833 207.5,340.5C 216.277,306.389 224.61,272.056 232.5,237.5C 244.706,234.741 254.039,228.074 260.5,217.5 Z"/></g>
</svg>
